<svg width="40" height="41" viewBox="0 0 40 41" fill="none" xmlns="http://www.w3.org/2000/svg">
<path d="M20 37.1666C29.205 37.1666 36.6667 29.7049 36.6667 20.4999C36.6667 11.2949 29.205 3.83325 20 3.83325C10.795 3.83325 3.33337 11.2949 3.33337 20.4999C3.33337 29.7049 10.795 37.1666 20 37.1666Z" stroke="#F5F5F5" stroke-width="1.5" stroke-linecap="round" stroke-linejoin="round"/>
<path d="M13.3333 5.5H15C11.75 15.2359 11.75 25.7641 15 35.5H13.3333M25 5.5C28.2499 15.2359 28.2499 25.7641 25 35.5" stroke="#F5F5F5" stroke-width="1.5" stroke-linecap="round" stroke-linejoin="round"/>
<path d="M5 27.1666V25.5C14.7359 28.7499 25.2641 28.7499 35 25.5V27.1666M5 15.5C14.7359 12.25 25.2641 12.25 35 15.5" stroke="#F5F5F5" stroke-width="1.5" stroke-linecap="round" stroke-linejoin="round"/>
</svg>
